<?xml version="1.0"?>
<svg xmlns="http://www.w3.org/2000/svg" height="512px" viewBox="-31 0 512 512" width="512px"><g transform="matrix(0.273489 0 0 0.273489 163.465 185.987)"><path d="m360 300v-30h-30v30l15.9375 30zm0 0" fill="#3e5959" data-original="#3E5959"/><path d="m450 300v60h-60l-30 15.898438 30 14.101562v122h-60v-62h-90v62h-60v-122h150l30-14.402344-30-15.597656v-60zm0 0" fill="#3e5959" data-original="#3E5959"/><path d="m450 300v60h-60l-30 15.898438v-75.898438zm0 0" fill="#384949" data-original="#384949"/><path d="m360 512v-136.101562l30 14.101562v122zm0 0" fill="#384949" data-original="#384949"/><path d="m390 360v30h-105c-38.402344 0-75-16.199219-100.5-44.699219s-37.800781-66.902343-33.597656-105.300781l29.699218 3.300781c-3.300781 30.300781 6 59.398438 26.398438 81.898438 19.800781 22.199219 48.300781 34.800781 78 34.800781zm0 0" fill="#ffbd86" data-original="#FFBD86"/><path d="m360 360h30v30h-30zm0 0" fill="#f6a96c" data-original="#F6A96C"/><path d="m135 45c0 24.902344-20.097656 45-45 45s-45-20.097656-45-45 20.097656-45 45-45 45 20.097656 45 45zm0 0" fill="#ff7816" data-original="#FF7816"/><path d="m220.5 234.300781-27 53.398438-93.300781-54-36.300781-48.300781c-2.398438 34.503906-3.898438 44.101562-3.898438 61.800781v264.800781h-60v-264.800781c0-46.800781 9.300781-104.699219 27.597656-147 9.601563-21.597657 38.101563-25.199219 51.902344-6.597657l60.300781 92.699219zm0 0" fill="#ff7816" data-original="#FF7816"/><g fill="#ff4b00"><path d="m135 45c0 24.902344-20.097656 45-45 45v-90c24.902344 0 45 20.097656 45 45zm0 0" data-original="#000000" class="active-path" style="fill:#000000"/><path d="m220.5 234.300781-27 53.398438-93.300781-54-10.199219-13.5v-110.398438l49.800781 76.5zm0 0" data-original="#000000" class="active-path" style="fill:#000000"/></g></g> </svg>
